# xmcd CD database file
#
# Track frame offsets:
#	150
#	13432
#	24180
#	41002
#	52862
#	64225
#	79397
#	92580
#	107577
#	119792
#	131610
#	142865
#	152540
#	168607
#	180575
#	189767
#
# Disc length: 2681 seconds
#
# Revision: 1
# Processed by: cddbd v1.5.2PL0 Copyright (c) Steve Scherf et al.
# Submitted via: CDex 1.77
#
DISCID=cf0a7710
DTITLE=Cornelis Vreeswijk - Het Mooiste Van
DYEAR=1998
DGENRE=Folk
TTITLE0=Veronica
TTITLE1=Misschien wordt het morgen beter
TTITLE2=De nozem en de non
TTITLE3=Felicia
TTITLE4=Bakker de Baksteen (Speedball Tucker)
TTITLE5=Rietzeiler-blues (Opus 2) (Blues For Ingamaj)
TTITLE6=De haan en de hen (die nog maagd was)
TTITLE7=Teddybeer (opus II)
TTITLE8=Autowasserij-blues
TTITLE9=Marjolijn (opus II)
TTITLE10=Ik wil 't niet pikken
TTITLE11=Op leeftijd
TTITLE12=Hopeloos-blues
TTITLE13=De bekommerde socialist
TTITLE14=Damrak-blues
TTITLE15=Daarom noem ik je "mijn liefste" in een lied
EXTD=YEAR: 1998
EXTT0=
EXTT1=
EXTT2=
EXTT3=
EXTT4=
EXTT5=
EXTT6=
EXTT7=
EXTT8=
EXTT9=
EXTT10=
EXTT11=
EXTT12=
EXTT13=
EXTT14=
EXTT15=
PLAYORDER=
